<svg width="116" height="97" viewBox="0 0 116 97" fill="none" xmlns="http://www.w3.org/2000/svg">
<path d="M89.4341 29.5141C81.2078 15.8224 64.6648 8.64567 48.5942 12.9518C32.496 17.2653 21.7853 31.7446 21.5069 47.7151C12.4729 52.547 8.8257 56.8285 9.97175 61.1056C11.1104 65.355 16.3821 67.2466 26.4836 66.9511C34.5635 80.9798 51.3413 88.4805 67.6604 84.1079C83.9795 79.7352 94.7592 64.8504 94.7422 48.6613C103.611 43.8738 107.23 39.5998 106.092 35.3504C104.945 31.0733 99.6462 29.189 89.4341 29.5141ZM23.4783 60.374C19.6059 60.2805 17.5081 59.7411 16.6264 59.3225C17.1806 58.5191 18.7351 57.0309 22.0898 54.9711C22.2398 55.9728 22.4801 56.98 22.7555 58.0077C22.9713 58.8131 23.2147 59.6111 23.4783 60.374ZM29.1064 56.306C24.7901 40.1972 34.3181 23.6236 50.3058 19.3397C66.3212 15.0484 82.8394 24.6727 87.1482 40.7537C87.498 42.059 87.7724 43.4144 87.9214 44.7437C80.3708 48.3744 70.4879 51.9155 59.7741 54.7863C49.088 57.6496 38.7585 59.5244 30.3766 60.1628C29.8962 58.9222 29.4636 57.6391 29.1064 56.306ZM65.9562 77.7477C53.7238 81.0253 41.1218 76.1862 33.9872 66.4587C42.1641 65.6072 51.7034 63.7656 61.5059 61.139C71.3085 58.5125 80.4905 55.3377 87.9977 51.9866C86.6827 63.9782 78.1886 74.47 65.9562 77.7477ZM94.0563 41.4627C93.8957 40.6425 93.715 39.8574 93.4992 39.052C93.2313 38.0521 92.9283 37.0319 92.5574 36.0894C96.485 36.1681 98.5828 36.7075 99.4645 37.1261C98.8827 37.9369 97.3632 39.4454 94.0563 41.4627Z" fill="#FCF7F1"/>
</svg>
